<svg xmlns="http://www.w3.org/2000/svg" xmlns:xlink="http://www.w3.org/1999/xlink" width="1920" viewBox="0 0 1440 809.999993" height="1080" preserveAspectRatio="xMidYMid meet" version="1.0"><defs><clipPath id="697afd2636"><path d="M 559.5 223.5 L 822 223.5 L 822 561 L 559.5 561 Z M 559.5 223.5 " clip-rule="nonzero"/></clipPath></defs><g clip-path="url(#697afd2636)"><path fill="#ffffff" d="M 569.335938 224.460938 L 745.15625 223.5 L 821.386719 301.632812 L 820.648438 551.367188 C 820.648438 556.566406 816.40625 560.824219 811.199219 560.824219 L 569.335938 560.824219 C 564.148438 560.824219 559.886719 556.566406 559.886719 551.367188 L 559.886719 233.902344 C 559.886719 228.71875 564.148438 224.460938 569.335938 224.460938 " fill-opacity="1" fill-rule="nonzero"/></g><path fill="#20335f" d="M 645.472656 338.730469 L 596.605469 338.730469 L 596.605469 289.917969 L 645.472656 289.917969 L 645.472656 338.730469 " fill-opacity="1" fill-rule="nonzero"/><path fill="#20335f" d="M 645.472656 430.527344 L 596.605469 430.527344 L 596.605469 381.695312 L 645.472656 381.695312 L 645.472656 430.527344 " fill-opacity="1" fill-rule="nonzero"/><path fill="#20335f" d="M 645.472656 522.324219 L 596.605469 522.324219 L 596.605469 473.507812 L 645.472656 473.507812 L 645.472656 522.324219 " fill-opacity="1" fill-rule="nonzero"/><path fill="#20335f" d="M 788.152344 485.226562 L 661.109375 485.226562 L 661.109375 473.507812 L 788.152344 473.507812 L 788.152344 485.226562 " fill-opacity="1" fill-rule="nonzero"/><path fill="#20335f" d="M 788.152344 508.660156 L 661.109375 508.660156 L 661.109375 496.945312 L 788.152344 496.945312 L 788.152344 508.660156 " fill-opacity="1" fill-rule="nonzero"/><path fill="#20335f" d="M 786.207031 393.429688 L 659.144531 393.429688 L 659.144531 381.695312 L 786.207031 381.695312 L 786.207031 393.429688 " fill-opacity="1" fill-rule="nonzero"/><path fill="#20335f" d="M 786.207031 416.867188 L 659.144531 416.867188 L 659.144531 405.148438 L 786.207031 405.148438 L 786.207031 416.867188 " fill-opacity="1" fill-rule="nonzero"/><path fill="#20335f" d="M 782.300781 301.636719 L 655.234375 301.636719 L 655.234375 289.917969 L 782.300781 289.917969 L 782.300781 301.636719 " fill-opacity="1" fill-rule="nonzero"/><path fill="#20335f" d="M 782.300781 325.070312 L 655.234375 325.070312 L 655.234375 313.351562 L 782.300781 313.351562 L 782.300781 325.070312 " fill-opacity="1" fill-rule="nonzero"/><path fill="#d9d9d9" d="M 745.082031 224.460938 L 820.648438 301.632812 L 758.011719 301.632812 C 751.046875 301.632812 745.378906 295.988281 745.359375 289.011719 L 745.082031 224.460938 " fill-opacity="1" fill-rule="nonzero"/><path fill="#ec104d" d="M 875.667969 501.847656 L 863.71875 494.964844 L 871.183594 485.042969 C 874 481.320312 873 475.398438 867.441406 473.175781 L 854.605469 471.601562 L 857.957031 459.089844 C 857.957031 453.128906 852.863281 450 848.359375 451.203125 L 836.355469 454.425781 L 834.429688 440.746094 C 832.097656 435.265625 826.167969 434.359375 822.5 437.226562 L 813.386719 444.335938 L 806.921875 433.15625 C 802.695312 428.917969 796.859375 430.285156 794.527344 434.339844 L 788.300781 445.09375 L 777.296875 436.800781 C 771.757812 434.542969 766.925781 438.097656 766.351562 442.726562 L 764.941406 454.183594 L 752.457031 450.851562 C 746.472656 450.832031 743.324219 455.941406 744.527344 460.441406 L 747.730469 472.433594 L 734.078125 474.359375 C 728.578125 476.675781 727.652344 482.597656 730.539062 486.28125 L 737.65625 495.390625 L 726.464844 501.847656 C 722.222656 506.070312 723.59375 511.902344 727.652344 514.234375 L 738.414062 520.433594 L 730.097656 531.449219 C 727.855469 536.984375 731.394531 541.816406 736.042969 542.386719 L 747.511719 543.796875 L 744.15625 556.308594 C 744.15625 561.417969 747.917969 564.453125 751.828125 564.453125 C 752.472656 564.453125 753.121094 564.359375 753.769531 564.195312 L 765.777344 560.992188 L 767.703125 574.652344 C 769.703125 579.355469 774.335938 580.6875 777.945312 579.167969 C 778.539062 578.910156 779.09375 578.578125 779.632812 578.171875 L 788.746094 571.0625 L 795.210938 582.242188 C 799.417969 586.480469 805.269531 585.09375 807.605469 581.058594 L 813.8125 570.320312 L 824.832031 578.613281 C 830.371094 580.855469 835.207031 577.300781 835.78125 572.671875 L 837.191406 561.195312 L 848.359375 564.195312 C 848.992188 564.359375 849.65625 564.453125 850.289062 564.453125 C 852.269531 564.453125 854.214844 563.675781 855.640625 562.25 C 857.550781 560.34375 858.289062 557.550781 857.605469 554.957031 L 854.382812 542.960938 L 866.699219 541.222656 C 867.347656 541.148438 867.980469 540.964844 868.570312 540.703125 C 870.40625 539.945312 871.886719 538.464844 872.628906 536.59375 C 873.648438 534.09375 873.238281 531.246094 871.589844 529.117188 L 864.460938 520.007812 L 874.480469 514.234375 C 878.519531 511.902344 879.910156 506.070312 875.667969 501.847656 " fill-opacity="1" fill-rule="nonzero"/><path stroke-linecap="round" transform="matrix(0.185252, 0, 0, -0.18511, 325.22879, 797.71006)" fill="none" stroke-linejoin="round" d="M 2382.199858 1538.209534 L 2535.791638 1410.202622 L 2753.295648 1717.305257 " stroke="#ffffff" stroke-width="63.98" stroke-opacity="1" stroke-miterlimit="10"/></svg>