<svg xmlns="http://www.w3.org/2000/svg" xmlns:xlink="http://www.w3.org/1999/xlink" width="720" zoomAndPan="magnify" viewBox="0 0 1440 809.999993" height="1080" preserveAspectRatio="xMidYMid meet" version="1.0"><defs><clipPath id="862e116ec9"><path d="M 618 289.5 L 785 289.5 L 785 505 L 618 505 Z M 618 289.5 " clip-rule="nonzero"/></clipPath></defs><g clip-path="url(#862e116ec9)"><path fill="#96ddf8" d="M 624.25 290.113281 L 735.988281 289.5 L 784.433594 339.222656 L 783.960938 498.140625 C 783.960938 501.453125 781.265625 504.160156 777.957031 504.160156 L 624.25 504.160156 C 620.953125 504.160156 618.246094 501.453125 618.246094 498.140625 L 618.246094 296.121094 C 618.246094 292.820312 620.953125 290.113281 624.25 290.113281 " fill-opacity="1" fill-rule="nonzero"/></g><path fill="#ffffff" d="M 672.636719 362.828125 L 641.582031 362.828125 L 641.582031 331.765625 L 672.636719 331.765625 L 672.636719 362.828125 " fill-opacity="1" fill-rule="nonzero"/><path fill="#ffffff" d="M 672.636719 421.246094 L 641.582031 421.246094 L 641.582031 390.167969 L 672.636719 390.167969 L 672.636719 421.246094 " fill-opacity="1" fill-rule="nonzero"/><path fill="#ffffff" d="M 672.636719 479.660156 L 641.582031 479.660156 L 641.582031 448.597656 L 672.636719 448.597656 L 672.636719 479.660156 " fill-opacity="1" fill-rule="nonzero"/><path fill="#20335f" d="M 763.3125 456.054688 L 682.574219 456.054688 L 682.574219 448.597656 L 763.3125 448.597656 L 763.3125 456.054688 " fill-opacity="1" fill-rule="nonzero"/><path fill="#20335f" d="M 763.3125 470.964844 L 682.574219 470.964844 L 682.574219 463.511719 L 763.3125 463.511719 L 763.3125 470.964844 " fill-opacity="1" fill-rule="nonzero"/><path fill="#20335f" d="M 762.078125 397.636719 L 681.324219 397.636719 L 681.324219 390.167969 L 762.078125 390.167969 L 762.078125 397.636719 " fill-opacity="1" fill-rule="nonzero"/><path fill="#20335f" d="M 762.078125 412.550781 L 681.324219 412.550781 L 681.324219 405.09375 L 762.078125 405.09375 L 762.078125 412.550781 " fill-opacity="1" fill-rule="nonzero"/><path fill="#20335f" d="M 759.59375 339.222656 L 678.839844 339.222656 L 678.839844 331.765625 L 759.59375 331.765625 L 759.59375 339.222656 " fill-opacity="1" fill-rule="nonzero"/><path fill="#20335f" d="M 759.59375 354.136719 L 678.839844 354.136719 L 678.839844 346.679688 L 759.59375 346.679688 L 759.59375 354.136719 " fill-opacity="1" fill-rule="nonzero"/><path fill="#68cef5" d="M 735.941406 290.113281 L 783.960938 339.222656 L 744.15625 339.222656 C 739.730469 339.222656 736.128906 335.628906 736.117188 331.1875 L 735.941406 290.113281 " fill-opacity="1" fill-rule="nonzero"/><path fill="#ec104d" d="M 818.929688 466.632812 L 811.335938 462.25 L 816.078125 455.933594 C 817.867188 453.566406 817.234375 449.796875 813.699219 448.382812 L 805.542969 447.382812 L 807.671875 439.421875 C 807.671875 435.628906 804.4375 433.636719 801.574219 434.402344 L 793.945312 436.453125 L 792.722656 427.746094 C 791.238281 424.261719 787.472656 423.683594 785.140625 425.507812 L 779.347656 430.03125 L 775.238281 422.917969 C 772.554688 420.21875 768.847656 421.089844 767.363281 423.671875 L 763.40625 430.515625 L 756.414062 425.238281 C 752.894531 423.800781 749.820312 426.0625 749.457031 429.007812 L 748.5625 436.296875 L 740.625 434.179688 C 736.824219 434.167969 734.820312 437.417969 735.585938 440.28125 L 737.625 447.914062 L 728.949219 449.136719 C 725.449219 450.609375 724.863281 454.378906 726.699219 456.726562 L 731.21875 462.519531 L 724.109375 466.632812 C 721.414062 469.316406 722.285156 473.027344 724.863281 474.511719 L 731.703125 478.457031 L 726.417969 485.46875 C 724.992188 488.988281 727.242188 492.0625 730.195312 492.429688 L 737.484375 493.324219 L 735.351562 501.289062 C 735.351562 504.539062 737.742188 506.46875 740.226562 506.46875 C 740.636719 506.46875 741.050781 506.410156 741.460938 506.304688 L 749.089844 504.265625 L 750.316406 512.960938 C 751.585938 515.953125 754.53125 516.800781 756.824219 515.835938 C 757.203125 515.671875 757.554688 515.457031 757.898438 515.199219 L 763.691406 510.675781 L 767.796875 517.789062 C 770.472656 520.488281 774.191406 519.605469 775.675781 517.035156 L 779.617188 510.203125 L 786.625 515.480469 C 790.144531 516.90625 793.214844 514.644531 793.582031 511.699219 L 794.476562 504.398438 L 801.574219 506.304688 C 801.976562 506.410156 802.398438 506.46875 802.800781 506.46875 C 804.058594 506.46875 805.296875 505.976562 806.203125 505.070312 C 807.414062 503.855469 807.886719 502.078125 807.449219 500.425781 L 805.402344 492.792969 L 813.230469 491.6875 C 813.640625 491.640625 814.042969 491.523438 814.417969 491.355469 C 815.585938 490.875 816.527344 489.933594 816.996094 488.742188 C 817.644531 487.152344 817.386719 485.335938 816.339844 483.984375 L 811.804688 478.1875 L 818.175781 474.511719 C 820.742188 473.027344 821.625 469.316406 818.929688 466.632812 " fill-opacity="1" fill-rule="nonzero"/><path stroke-linecap="round" transform="matrix(0.11773, 0, 0, -0.117797, 469.117855, 654.906443)" fill="none" stroke-linejoin="round" d="M 2382.204556 1538.201009 L 2535.793858 1410.200113 L 2753.287458 1717.302781 " stroke="#ffffff" stroke-width="63.98" stroke-opacity="1" stroke-miterlimit="10"/></svg>