<svg xmlns="http://www.w3.org/2000/svg" xmlns:xlink="http://www.w3.org/1999/xlink" width="1920" zoomAndPan="magnify" viewBox="0 0 1440 809.999993" height="1080" preserveAspectRatio="xMidYMid meet" version="1.0"><defs><clipPath id="28c0d9202e"><path d="M 699 230.761719 L 741 230.761719 L 741 273 L 699 273 Z M 699 230.761719 " clip-rule="nonzero"/></clipPath><clipPath id="244584a6a2"><path d="M 699 537 L 741 537 L 741 578.761719 L 699 578.761719 Z M 699 537 " clip-rule="nonzero"/></clipPath></defs><path fill="#ffffff" d="M 754.960938 378.074219 L 754.960938 431.53125 C 754.960938 435.363281 751.855469 438.46875 748.023438 438.46875 C 744.191406 438.46875 741.085938 435.363281 741.085938 431.53125 L 741.085938 378.074219 C 741.085938 374.242188 744.191406 371.136719 748.023438 371.136719 C 751.855469 371.136719 754.960938 374.242188 754.960938 378.074219 Z M 888.113281 498.261719 C 891.945312 498.261719 895.054688 495.15625 895.054688 491.324219 C 895.054688 487.492188 891.945312 484.386719 888.113281 484.386719 L 825.003906 484.386719 L 789.0625 459.164062 C 794.90625 456.808594 800.167969 453.289062 804.558594 448.902344 C 812.941406 440.515625 818.148438 428.941406 818.148438 416.203125 L 818.148438 411.070312 L 839.464844 411.070312 L 839.464844 405.472656 C 839.464844 405.246094 839.476562 405.023438 839.496094 404.804688 C 839.476562 404.582031 839.464844 404.359375 839.464844 404.132812 L 839.464844 397.195312 L 818.148438 397.195312 L 818.148438 393.402344 C 818.148438 380.667969 812.941406 369.089844 804.558594 360.707031 C 800.167969 356.316406 794.90625 352.800781 789.0625 350.441406 C 783.742188 348.296875 777.933594 347.113281 771.863281 347.113281 L 769.699219 347.113281 C 717.027344 347.113281 722.972656 347.113281 670.304688 347.113281 L 668.136719 347.113281 C 662.066406 347.113281 656.257812 348.296875 650.9375 350.441406 C 645.09375 352.800781 639.832031 356.316406 635.441406 360.707031 C 627.058594 369.089844 621.851562 380.667969 621.851562 393.402344 L 621.851562 416.203125 C 621.851562 428.941406 627.058594 440.515625 635.441406 448.902344 C 639.832031 453.289062 645.09375 456.808594 650.9375 459.164062 L 614.996094 484.386719 L 551.886719 484.386719 C 548.054688 484.386719 544.949219 487.492188 544.949219 491.324219 C 544.949219 495.15625 548.054688 498.261719 551.886719 498.261719 L 617.164062 498.261719 C 618.800781 498.261719 620.308594 497.695312 621.492188 496.746094 L 670.304688 462.492188 C 722.972656 462.492188 717.027344 462.492188 769.699219 462.492188 L 818.507812 496.746094 C 819.695312 497.695312 821.199219 498.261719 822.835938 498.261719 Z M 701.074219 374.996094 L 701.078125 375.007812 L 701.179688 375.261719 L 715.433594 412.773438 C 715.578125 413.082031 715.699219 413.402344 715.796875 413.734375 L 721.773438 429.464844 C 723.121094 433.042969 721.3125 437.035156 717.734375 438.382812 C 714.160156 439.726562 710.164062 437.921875 708.820312 434.34375 L 704.378906 422.652344 L 685.023438 422.652344 L 680.582031 434.34375 C 679.238281 437.921875 675.246094 439.726562 671.667969 438.382812 C 668.089844 437.035156 666.285156 433.042969 667.628906 429.464844 L 672.167969 417.515625 L 673.609375 413.726562 C 673.707031 413.398438 673.824219 413.082031 673.96875 412.78125 L 688.226562 375.261719 C 690.515625 369.546875 698.578125 369.179688 701.074219 374.996094 Z M 701.074219 374.996094 " fill-opacity="1" fill-rule="evenodd"/><path fill="#ffffff" d="M 755.992188 282.949219 C 767.457031 282.949219 776.789062 292.300781 776.789062 303.75 C 776.789062 315.214844 767.457031 324.550781 755.992188 324.550781 C 744.523438 324.550781 735.195312 315.214844 735.195312 303.75 C 735.195312 292.277344 744.527344 282.949219 755.992188 282.949219 Z M 755.992188 282.949219 " fill-opacity="1" fill-rule="nonzero"/><g clip-path="url(#28c0d9202e)"><path fill="#ffffff" d="M 720 230.859375 C 731.46875 230.859375 740.796875 240.191406 740.796875 251.660156 C 740.796875 263.128906 731.464844 272.457031 720 272.457031 C 708.53125 272.457031 699.203125 263.125 699.203125 251.660156 C 699.203125 240.191406 708.539062 230.859375 720 230.859375 Z M 720 230.859375 " fill-opacity="1" fill-rule="nonzero"/></g><path fill="#ffffff" d="M 538.027344 297.480469 C 549.496094 297.480469 558.824219 306.816406 558.824219 318.28125 C 558.824219 329.753906 549.488281 339.082031 538.027344 339.082031 C 526.554688 339.082031 517.226562 329.746094 517.226562 318.28125 C 517.226562 306.8125 526.5625 297.480469 538.027344 297.480469 Z M 538.027344 297.480469 " fill-opacity="1" fill-rule="nonzero"/><path fill="#ffffff" d="M 617.164062 237.117188 C 628.632812 237.117188 637.960938 246.449219 637.960938 257.917969 C 637.960938 269.390625 628.628906 278.71875 617.164062 278.71875 C 605.695312 278.71875 596.367188 269.382812 596.367188 257.917969 C 596.367188 246.445312 605.699219 237.117188 617.164062 237.117188 Z M 617.164062 237.117188 " fill-opacity="1" fill-rule="nonzero"/><path fill="#ffffff" d="M 548.179688 348.902344 C 559.648438 348.902344 568.976562 358.238281 568.976562 369.703125 C 568.976562 381.171875 559.640625 390.503906 548.179688 390.503906 C 536.707031 390.503906 527.378906 381.179688 527.378906 369.703125 C 527.378906 358.238281 536.730469 348.902344 548.179688 348.902344 Z M 548.179688 348.902344 " fill-opacity="1" fill-rule="nonzero"/><path fill="#ffffff" d="M 901.972656 297.480469 C 913.4375 297.480469 922.773438 306.8125 922.773438 318.28125 C 922.773438 329.746094 913.445312 339.082031 901.972656 339.082031 C 890.507812 339.082031 881.175781 329.753906 881.175781 318.28125 C 881.175781 306.816406 890.503906 297.480469 901.972656 297.480469 Z M 901.972656 297.480469 " fill-opacity="1" fill-rule="nonzero"/><path fill="#ffffff" d="M 822.835938 237.117188 C 834.300781 237.117188 843.632812 246.445312 843.632812 257.917969 C 843.632812 269.382812 834.304688 278.71875 822.835938 278.71875 C 811.371094 278.71875 802.039062 269.390625 802.039062 257.917969 C 802.039062 246.449219 811.367188 237.117188 822.835938 237.117188 Z M 822.835938 237.117188 " fill-opacity="1" fill-rule="nonzero"/><path fill="#ffffff" d="M 891.820312 348.902344 C 903.269531 348.902344 912.621094 358.238281 912.621094 369.703125 C 912.621094 381.179688 903.292969 390.503906 891.820312 390.503906 C 886.375 390.503906 881.40625 388.390625 877.683594 384.9375 C 864.5 372.714844 872.246094 348.902344 891.820312 348.902344 Z M 891.820312 348.902344 " fill-opacity="1" fill-rule="nonzero"/><path fill="#ffffff" d="M 682.890625 526.65625 C 671.441406 526.65625 662.089844 517.320312 662.089844 505.855469 C 662.089844 494.382812 671.417969 485.054688 682.890625 485.054688 C 688.632812 485.054688 693.832031 487.386719 697.59375 491.148438 C 701.359375 494.914062 703.6875 500.113281 703.6875 505.855469 C 703.6875 517.324219 694.355469 526.65625 682.890625 526.65625 Z M 682.890625 526.65625 " fill-opacity="1" fill-rule="nonzero"/><path fill="#ffffff" d="M 755.992188 526.65625 C 744.527344 526.65625 735.195312 517.328125 735.195312 505.855469 C 735.195312 494.390625 744.523438 485.054688 755.992188 485.054688 C 767.457031 485.054688 776.789062 494.390625 776.789062 505.855469 C 776.789062 517.308594 767.457031 526.65625 755.992188 526.65625 Z M 755.992188 526.65625 " fill-opacity="1" fill-rule="nonzero"/><g clip-path="url(#244584a6a2)"><path fill="#ffffff" d="M 720 578.75 C 708.539062 578.75 699.203125 569.417969 699.203125 557.949219 C 699.203125 546.484375 708.53125 537.148438 720 537.148438 C 731.464844 537.148438 740.796875 546.476562 740.796875 557.949219 C 740.796875 569.414062 731.46875 578.75 720 578.75 Z M 720 578.75 " fill-opacity="1" fill-rule="nonzero"/></g><path fill="#ffffff" d="M 538.027344 512.125 C 526.5625 512.125 517.226562 502.792969 517.226562 491.324219 C 517.226562 479.859375 526.554688 470.523438 538.027344 470.523438 C 549.488281 470.523438 558.824219 479.851562 558.824219 491.324219 C 558.824219 502.792969 549.496094 512.125 538.027344 512.125 Z M 538.027344 512.125 " fill-opacity="1" fill-rule="nonzero"/><path fill="#ffffff" d="M 617.164062 572.488281 C 605.699219 572.488281 596.367188 563.160156 596.367188 551.6875 C 596.367188 540.222656 605.695312 530.890625 617.164062 530.890625 C 628.628906 530.890625 637.960938 540.21875 637.960938 551.6875 C 637.960938 563.15625 628.632812 572.488281 617.164062 572.488281 Z M 617.164062 572.488281 " fill-opacity="1" fill-rule="nonzero"/><path fill="#ffffff" d="M 548.179688 460.703125 C 536.730469 460.703125 527.378906 451.367188 527.378906 439.902344 C 527.378906 428.429688 536.707031 419.101562 548.179688 419.101562 C 559.640625 419.101562 568.976562 428.433594 568.976562 439.902344 C 568.976562 451.367188 559.648438 460.703125 548.179688 460.703125 Z M 548.179688 460.703125 " fill-opacity="1" fill-rule="nonzero"/><path fill="#ffffff" d="M 901.972656 512.125 C 890.503906 512.125 881.175781 502.792969 881.175781 491.324219 C 881.175781 479.851562 890.507812 470.523438 901.972656 470.523438 C 913.445312 470.523438 922.773438 479.859375 922.773438 491.324219 C 922.773438 502.792969 913.4375 512.125 901.972656 512.125 Z M 901.972656 512.125 " fill-opacity="1" fill-rule="nonzero"/><path fill="#ffffff" d="M 822.835938 572.488281 C 811.367188 572.488281 802.039062 563.15625 802.039062 551.6875 C 802.039062 540.21875 811.371094 530.890625 822.835938 530.890625 C 834.304688 530.890625 843.632812 540.222656 843.632812 551.6875 C 843.632812 563.160156 834.300781 572.488281 822.835938 572.488281 Z M 822.835938 572.488281 " fill-opacity="1" fill-rule="nonzero"/><path fill="#ffffff" d="M 891.820312 460.703125 C 880.351562 460.703125 871.023438 451.367188 871.023438 439.902344 C 871.023438 439.660156 871.050781 438.824219 871.085938 438.550781 L 871.089844 438.375 C 871.492188 432.960938 873.949219 428.128906 877.683594 424.667969 C 881.40625 421.214844 886.375 419.101562 891.820312 419.101562 C 903.292969 419.101562 912.621094 428.429688 912.621094 439.902344 C 912.621094 451.367188 903.269531 460.703125 891.820312 460.703125 Z M 891.820312 460.703125 " fill-opacity="1" fill-rule="nonzero"/><path fill="#ffffff" d="M 682.890625 282.949219 C 694.355469 282.949219 703.6875 292.285156 703.6875 303.75 C 703.6875 309.492188 701.359375 314.691406 697.59375 318.457031 C 693.832031 322.21875 688.632812 324.550781 682.890625 324.550781 C 671.417969 324.550781 662.089844 315.226562 662.089844 303.75 C 662.089844 292.285156 671.441406 282.949219 682.890625 282.949219 Z M 682.890625 282.949219 " fill-opacity="1" fill-rule="nonzero"/><path fill="#ffffff" d="M 696.75 296.808594 C 692.917969 296.808594 689.8125 299.917969 689.8125 303.75 C 689.8125 307.582031 692.917969 310.6875 696.75 310.6875 L 742.132812 310.6875 C 745.964844 310.6875 749.070312 307.582031 749.070312 303.75 C 749.070312 299.917969 745.964844 296.808594 742.132812 296.808594 Z M 696.75 296.808594 " fill-opacity="1" fill-rule="nonzero"/><path fill="#ffffff" d="M 551.886719 311.34375 C 548.054688 311.34375 544.949219 314.449219 544.949219 318.28125 C 544.949219 322.113281 548.054688 325.222656 551.886719 325.222656 L 614.996094 325.222656 L 664.152344 359.71875 C 667.28125 361.917969 671.601562 361.164062 673.800781 358.035156 C 676 354.910156 675.246094 350.589844 672.121094 348.390625 L 621.496094 312.863281 C 620.308594 311.914062 618.800781 311.34375 617.164062 311.34375 Z M 551.886719 311.34375 " fill-opacity="1" fill-rule="nonzero"/><path fill="#ffffff" d="M 624.101562 271.777344 C 624.101562 267.945312 620.996094 264.839844 617.164062 264.839844 C 613.332031 264.839844 610.226562 267.945312 610.226562 271.777344 L 610.226562 318.28125 C 610.226562 322.113281 613.332031 325.222656 617.164062 325.222656 C 620.996094 325.222656 624.101562 322.113281 624.101562 318.28125 Z M 624.101562 271.777344 " fill-opacity="1" fill-rule="nonzero"/><path fill="#ffffff" d="M 628.789062 411.070312 C 632.621094 411.070312 635.726562 407.964844 635.726562 404.132812 C 635.726562 400.300781 632.621094 397.195312 628.789062 397.195312 L 518.796875 397.195312 C 514.964844 397.195312 511.859375 400.300781 511.859375 404.132812 C 511.859375 407.964844 514.964844 411.070312 518.796875 411.070312 Z M 628.789062 411.070312 " fill-opacity="1" fill-rule="nonzero"/><path fill="#ffffff" d="M 562.039062 362.761719 C 558.207031 362.761719 555.101562 365.871094 555.101562 369.703125 C 555.101562 373.535156 558.207031 376.640625 562.039062 376.640625 L 586.660156 376.640625 L 586.660156 404.132812 C 586.660156 407.964844 589.765625 411.070312 593.597656 411.070312 C 597.429688 411.070312 600.535156 407.964844 600.535156 404.132812 L 600.535156 369.703125 C 600.535156 365.871094 597.429688 362.761719 593.597656 362.761719 Z M 562.039062 362.761719 " fill-opacity="1" fill-rule="nonzero"/><path fill="#ffffff" d="M 504.9375 383.332031 C 501.105469 383.332031 498 386.441406 498 390.273438 C 498 394.101562 501.105469 397.210938 504.9375 397.210938 C 506.847656 397.210938 508.582031 397.984375 509.832031 399.238281 C 509.917969 399.324219 510.003906 399.40625 510.09375 399.484375 C 511.1875 400.710938 511.859375 402.339844 511.859375 404.132812 C 511.859375 407.964844 514.964844 411.070312 518.796875 411.070312 C 522.628906 411.070312 525.734375 407.964844 525.734375 404.132812 C 525.734375 398.640625 523.585938 393.636719 520.085938 389.914062 C 519.949219 389.746094 519.800781 389.582031 519.644531 389.425781 L 519.640625 389.425781 C 515.878906 385.664062 510.679688 383.332031 504.9375 383.332031 Z M 504.9375 383.332031 " fill-opacity="1" fill-rule="nonzero"/><path fill="#ffffff" d="M 888.113281 325.21875 C 891.945312 325.21875 895.050781 322.113281 895.050781 318.28125 C 895.050781 314.449219 891.945312 311.34375 888.113281 311.34375 L 822.835938 311.34375 C 821.199219 311.34375 819.691406 311.910156 818.503906 312.859375 L 767.878906 348.386719 C 764.753906 350.585938 764 354.90625 766.199219 358.035156 C 768.398438 361.164062 772.71875 361.917969 775.847656 359.71875 L 825.003906 325.21875 Z M 888.113281 325.21875 " fill-opacity="1" fill-rule="nonzero"/><path fill="#ffffff" d="M 829.773438 271.777344 C 829.773438 267.945312 826.667969 264.839844 822.835938 264.839844 C 819.003906 264.839844 815.898438 267.945312 815.898438 271.777344 L 815.898438 318.28125 C 815.898438 322.113281 819.003906 325.222656 822.835938 325.222656 C 826.667969 325.222656 829.773438 322.113281 829.773438 318.28125 Z M 829.773438 271.777344 " fill-opacity="1" fill-rule="nonzero"/><path fill="#ffffff" d="M 877.960938 376.640625 C 881.792969 376.640625 884.898438 373.535156 884.898438 369.703125 C 884.898438 365.871094 881.792969 362.765625 877.960938 362.765625 L 846.402344 362.765625 C 842.570312 362.765625 839.464844 365.871094 839.464844 369.703125 L 839.464844 404.132812 C 839.464844 407.964844 842.570312 411.074219 846.402344 411.074219 C 850.234375 411.074219 853.339844 407.964844 853.339844 404.132812 L 853.339844 376.640625 Z M 877.960938 376.640625 " fill-opacity="1" fill-rule="nonzero"/><path fill="#ffffff" d="M 935.0625 397.210938 C 938.894531 397.210938 942 394.101562 942 390.269531 C 942 386.4375 938.894531 383.332031 935.0625 383.332031 C 929.320312 383.332031 924.121094 385.664062 920.359375 389.425781 L 920.355469 389.425781 C 920.199219 389.582031 920.050781 389.746094 919.914062 389.914062 C 916.414062 393.636719 914.265625 398.636719 914.265625 404.132812 C 914.265625 407.964844 917.371094 411.070312 921.203125 411.070312 C 925.035156 411.070312 928.140625 407.964844 928.140625 404.132812 C 928.140625 402.339844 928.8125 400.710938 929.90625 399.484375 C 929.996094 399.40625 930.082031 399.324219 930.167969 399.238281 C 931.417969 397.984375 933.152344 397.210938 935.0625 397.210938 Z M 935.0625 397.210938 " fill-opacity="1" fill-rule="nonzero"/><path fill="#ffffff" d="M 726.9375 455.554688 C 726.9375 451.722656 723.832031 448.613281 720 448.613281 C 716.167969 448.613281 713.0625 451.722656 713.0625 455.554688 L 713.0625 544.085938 C 713.0625 547.917969 716.167969 551.027344 720 551.027344 C 723.832031 551.027344 726.9375 547.917969 726.9375 544.085938 Z M 726.9375 455.554688 " fill-opacity="1" fill-rule="nonzero"/><path fill="#ffffff" d="M 696.75 498.917969 C 692.917969 498.917969 689.8125 502.023438 689.8125 505.855469 C 689.8125 509.6875 692.917969 512.796875 696.75 512.796875 L 742.132812 512.796875 C 745.964844 512.796875 749.070312 509.6875 749.070312 505.855469 C 749.070312 502.023438 745.964844 498.917969 742.132812 498.917969 Z M 696.75 498.917969 " fill-opacity="1" fill-rule="nonzero"/><path fill="#ffffff" d="M 610.226562 537.828125 C 610.226562 541.660156 613.332031 544.765625 617.164062 544.765625 C 620.996094 544.765625 624.101562 541.660156 624.101562 537.828125 L 624.101562 491.324219 C 624.101562 487.492188 620.996094 484.386719 617.164062 484.386719 C 613.332031 484.386719 610.226562 487.492188 610.226562 491.324219 Z M 610.226562 537.828125 " fill-opacity="1" fill-rule="nonzero"/><path fill="#ffffff" d="M 562.039062 432.964844 C 558.207031 432.964844 555.101562 436.070312 555.101562 439.902344 C 555.101562 443.734375 558.207031 446.84375 562.039062 446.84375 L 593.597656 446.84375 C 597.429688 446.84375 600.535156 443.734375 600.535156 439.902344 L 600.535156 405.472656 C 600.535156 401.640625 597.429688 398.535156 593.597656 398.535156 C 589.765625 398.535156 586.660156 401.640625 586.660156 405.472656 L 586.660156 432.964844 Z M 562.039062 432.964844 " fill-opacity="1" fill-rule="nonzero"/><path fill="#ffffff" d="M 504.9375 412.398438 C 501.105469 412.398438 498 415.503906 498 419.335938 C 498 423.167969 501.105469 426.273438 504.9375 426.273438 C 510.570312 426.273438 515.691406 424.015625 519.441406 420.355469 C 523.195312 416.691406 525.570312 411.609375 525.703125 405.972656 L 525.726562 405.976562 C 525.734375 405.71875 525.726562 405.464844 525.703125 405.210938 L 525.707031 404.132812 C 525.707031 400.316406 522.613281 397.222656 518.796875 397.222656 C 514.980469 397.222656 511.886719 400.316406 511.886719 404.132812 L 511.882812 405.175781 C 511.871094 405.332031 511.859375 405.488281 511.855469 405.644531 L 511.882812 405.648438 C 511.835938 407.519531 511.046875 409.210938 509.792969 410.433594 C 508.550781 411.648438 506.835938 412.398438 504.9375 412.398438 Z M 504.9375 412.398438 " fill-opacity="1" fill-rule="nonzero"/><path fill="#ffffff" d="M 815.898438 537.828125 C 815.898438 541.660156 819.003906 544.765625 822.835938 544.765625 C 826.667969 544.765625 829.773438 541.660156 829.773438 537.828125 L 829.773438 491.324219 C 829.773438 487.492188 826.667969 484.386719 822.835938 484.386719 C 819.003906 484.386719 815.898438 487.492188 815.898438 491.324219 Z M 815.898438 537.828125 " fill-opacity="1" fill-rule="nonzero"/><path fill="#ffffff" d="M 877.960938 446.84375 C 881.792969 446.84375 884.898438 443.738281 884.898438 439.90625 C 884.898438 436.074219 881.792969 432.964844 877.960938 432.964844 L 853.339844 432.964844 L 853.339844 405.472656 C 853.339844 401.640625 850.234375 398.535156 846.402344 398.535156 C 842.570312 398.535156 839.464844 401.640625 839.464844 405.472656 L 839.464844 439.90625 C 839.464844 443.738281 842.570312 446.84375 846.402344 446.84375 Z M 877.960938 446.84375 " fill-opacity="1" fill-rule="nonzero"/><path fill="#ffffff" d="M 935.0625 426.273438 C 938.894531 426.273438 942 423.167969 942 419.335938 C 942 415.503906 938.894531 412.394531 935.0625 412.394531 C 933.136719 412.394531 931.375 411.648438 930.105469 410.433594 C 928.898438 409.273438 928.136719 407.714844 928.125 406.023438 L 928.113281 404.105469 C 928.101562 400.289062 924.992188 397.207031 921.175781 397.222656 C 917.359375 397.238281 914.277344 400.34375 914.292969 404.160156 L 914.304688 406.078125 C 914.339844 411.726562 916.734375 416.773438 920.511719 420.40625 C 924.300781 424.035156 929.480469 426.273438 935.0625 426.273438 Z M 935.0625 426.273438 " fill-opacity="1" fill-rule="nonzero"/><path fill="#ffffff" d="M 713.0625 354.054688 C 713.0625 357.886719 716.167969 360.992188 720 360.992188 C 723.832031 360.992188 726.9375 357.886719 726.9375 354.054688 L 726.9375 265.519531 C 726.9375 261.6875 723.832031 258.582031 720 258.582031 C 716.167969 258.582031 713.0625 261.6875 713.0625 265.519531 Z M 713.0625 354.054688 " fill-opacity="1" fill-rule="nonzero"/><path fill="#ffffff" d="M 915.457031 397.195312 L 853.339844 397.195312 L 853.339844 404.132812 C 853.339844 404.359375 853.328125 404.582031 853.308594 404.804688 C 853.328125 405.023438 853.339844 405.246094 853.339844 405.472656 L 853.339844 411.074219 L 914.972656 411.074219 C 914.546875 409.480469 914.316406 407.808594 914.304688 406.078125 L 914.296875 404.800781 C 914.273438 404.582031 914.265625 404.359375 914.265625 404.132812 C 914.265625 401.703125 914.6875 399.367188 915.457031 397.195312 Z M 915.457031 397.195312 " fill-opacity="1" fill-rule="evenodd"/><path fill="#ffffff" d="M 699.105469 408.777344 L 694.703125 397.1875 L 690.296875 408.777344 Z M 699.105469 408.777344 " fill-opacity="1" fill-rule="evenodd"/></svg>